# xmcd
# Copyright (C) 1995-1998 Ti Kan
#
# Track frame offsets:
#       150
#       7982
#       19936
#       31890
#       43423
#
# Disc length: 774 seconds
#
# Revision: 0
# Processed by: cddbd v1.5.2PL0 Copyright (c) Steve Scherf et al.
# Submitted via: CD-Transfer v1.0
#
DISCID=35030405
DTITLE=Radovnikoviæ, Ivana - 
DYEAR=06
DGENRE=
TTITLE0=Have Yourself A Merry Little Christmas
TTITLE1=Santa Baby
TTITLE2=Silver Bells
TTITLE3=Man With A Bag, The
TTITLE4=Santa Claus Is Comin' To Town
EXTD=
EXTT0=
EXTT1=
EXTT2=
EXTT3=
EXTT4=
PLAYORDER=
